<svg width="1000" height="1000" viewBox="0 0 1000 1000" fill="none" xmlns="#www.w3.org/2000/svg">
<rect width="1000" height="1000" fill="white"/>
<path d="M855.779 454.871C843.69 451.224 829.62 460.645 823.801 465.168C822.109 466.48 821.123 468.494 821.123 470.624C821.078 501.99 821.033 533.356 820.983 564.717C820.983 564.717 820.983 564.717 820.983 564.721C819.188 567.655 817.392 570.597 815.596 573.531C814.012 576.125 815.893 579.442 818.954 579.442H853.857C858.893 579.442 862.975 575.393 862.975 570.396C862.975 542.928 862.975 515.456 862.98 487.988C863.295 486.318 863.979 483.643 865.68 480.853C868.034 477 869.281 472.579 869.281 468.074V467.869C869.276 466.998 869.173 465.73 868.673 464.328C866.459 458.1 858.826 455.796 855.779 454.876V454.871Z" fill="black"/>
<path d="M924.392 464.087C922.178 457.859 914.545 455.555 911.498 454.635C899.409 450.987 885.339 460.408 879.52 464.931C877.828 466.244 876.842 468.257 876.842 470.387C876.797 501.753 876.752 533.119 876.703 564.48C876.703 564.48 876.703 564.48 876.703 564.485C874.907 567.418 873.111 570.361 871.315 573.294C869.731 575.888 871.612 579.206 874.673 579.206H909.576C914.612 579.206 918.695 575.156 918.695 570.16C918.695 542.692 918.694 515.219 918.699 487.751C919.014 486.081 919.698 483.407 921.399 480.616C923.753 476.763 925 472.343 925 467.838V467.632C924.995 466.762 924.892 465.493 924.392 464.092V464.087Z" fill="black"/>
<path d="M532.221 533.423C530.425 530.489 528.629 527.547 526.833 524.613C526.833 524.613 526.833 524.613 526.833 524.609V510.464C526.833 510.464 526.829 510.464 526.824 510.464C526.824 491.988 526.824 473.512 526.833 455.037V455.019C526.806 452.407 526.361 449.844 525.532 447.42C524.133 443.307 521.639 439.588 518.246 436.677L518.21 436.641C513.268 432.132 506.049 426.863 496.35 423.506C466.303 413.098 438.61 430.065 434.118 432.909C434.023 432.77 433.942 432.627 433.884 432.476C433.861 432.484 433.839 432.498 433.821 432.507C432.979 430.882 431.647 428.89 429.577 427.073C428.425 426.064 425.252 423.354 420.476 422.8C420.328 422.782 419.806 422.724 419.077 422.706C416.583 422.639 413.604 423.072 402.685 428.095C402.613 428.131 402.577 428.145 402.559 428.154C402.559 428.154 400.241 429.225 398.306 430.507C397.275 431.19 390.762 435.507 389.678 440.472C389.588 440.878 389.349 442.151 388.327 443.151C388.062 443.41 387.013 444.366 385.888 444.16C385.082 444.013 384.61 443.325 384.511 443.236C369.064 428.881 348.852 420.335 327.428 420.01C303.529 419.648 285.081 429.614 272.474 439.892C259.827 450.201 252.572 465.784 252.572 482.165C252.572 482.67 252.581 483.175 252.594 483.675C252.864 493.404 249.237 502.896 242.292 509.772C226.274 525.627 205.345 533.713 185.065 530.944C184.669 530.891 184.278 530.833 183.89 530.77C163.012 527.48 147.93 508.87 148.434 487.604L148.443 487.215C148.632 479.147 155.189 472.704 163.21 472.704H233.817C239.556 472.704 243.305 466.998 241.581 461.913H165.779C158.187 459.961 153.501 454.492 153.907 449.572C153.979 448.683 154.339 446.312 156.949 443.785L160.532 440.347C163.295 437.695 166.513 435.614 169.992 434.105C171.338 433.52 172.207 432.199 172.207 430.739V424.559C172.207 422.318 170.199 420.577 167.962 420.916C150.481 423.573 136.57 431.627 126.434 439.892C119.201 445.785 113.737 453.407 110.38 461.913H74.4235C72.6952 466.998 76.4488 472.704 82.1873 472.704H107.351C106.811 475.807 106.532 478.969 106.532 482.165C106.532 505.012 120.646 525.484 141.948 533.387C153.618 537.713 167.647 541.08 183.688 541.58C215.508 542.567 240.451 531.802 255.533 522.961C260.898 519.818 267.645 520.47 272.433 524.421C277.002 528.194 282.236 531.248 287.993 533.382C299.663 537.709 313.692 541.075 329.732 541.575C350.238 542.214 367.885 537.963 381.882 532.498C380.951 533.851 380.834 535.566 381.594 536.91C382.427 538.379 383.953 538.771 384.236 538.843H429.613C432.637 538.843 434.496 535.566 432.93 532.998C431.156 530.096 429.379 527.185 427.605 524.283V455.452C427.916 453.8 428.591 451.157 430.274 448.393C431.854 445.803 434.077 443.513 436.728 441.584C449.992 434.561 464.894 434.57 475.088 441.999C478.738 444.66 481.227 447.871 482.928 450.791C482.996 450.925 483.064 451.054 483.131 451.188C484.247 453.554 484.792 455.956 484.981 458.256V519.447C484.981 519.447 484.985 519.447 484.99 519.447V524.609C484.99 524.609 484.99 524.609 484.99 524.613C483.194 527.547 481.398 530.489 479.602 533.423C478.018 536.017 479.9 539.334 482.96 539.334H528.877C531.937 539.334 533.818 536.021 532.234 533.423H532.221ZM302.984 443.785L306.567 440.347C318.976 428.435 340.579 427.97 353.663 439.343L358.344 443.406C365.932 450 360.472 461.149 349.653 461.149H312.089C301.562 461.149 295.981 450.509 302.984 443.785ZM388.269 507.111C386.536 510.718 383.971 513.929 380.708 516.451C365.968 527.837 348.302 533.297 331.101 530.949C330.705 530.895 330.313 530.837 329.926 530.775C309.047 527.484 293.965 508.874 294.469 487.608L294.478 487.22C294.667 479.152 301.225 472.709 309.245 472.709H388.553C389.043 478.227 389.327 484.318 389.237 490.894C389.156 496.717 388.796 502.141 388.269 507.115V507.111Z" fill="black"/>
<path d="M797.62 471.146C796.598 469.824 795.437 468.597 794.141 467.485L794.105 467.449C789.753 463.716 785.518 461.06 782.007 459.189C778.946 458.068 775.71 457.091 772.29 456.291C742.198 449.259 716.35 460.421 705.958 465.668C698.851 469.052 694.099 472.856 691.052 475.745C687.091 479.495 685.142 482.514 680.421 483.92C679.224 484.277 672.13 487.345 670.141 483.228C669.754 482.429 669.358 481.683 668.958 480.996C668.624 480.076 668.138 478.839 667.441 477.424C665.312 473.102 662.814 470.266 661.833 469.244C660.001 467.333 658.079 466.016 656.445 464.614C652.017 460.805 646.751 458.05 641.053 456.698C641.017 456.689 640.985 456.68 640.949 456.675C621.506 452.09 603.85 455.242 591.068 459.448C589.965 459.81 588.853 459.725 587.895 459.314C588.129 455.644 589.132 452.059 590.847 448.786C591.185 448.143 591.522 447.495 591.864 446.853C591.878 446.853 591.887 446.853 591.9 446.853C594.151 443.727 594.151 440.334 594.151 437.284V437.079C594.146 436.208 594.043 434.94 593.543 433.538C591.329 427.31 583.695 425.006 580.648 424.086C568.555 420.438 554.486 429.864 548.671 434.382C546.979 435.695 545.993 437.704 545.993 439.834V446.634C545.988 446.634 545.984 446.634 545.984 446.643V524.113C545.984 524.113 545.984 524.113 545.984 524.118C544.188 527.051 542.392 529.993 540.596 532.927C539.012 535.521 540.893 538.838 543.954 538.838H589.87C592.931 538.838 594.812 535.525 593.228 532.927C591.432 529.993 589.636 527.051 587.841 524.118C587.841 524.118 587.841 524.118 587.841 524.113V483.5C587.841 482.974 587.89 482.46 587.985 481.956V471.334C589.083 470.338 590.447 469.615 591.986 469.289C601.203 467.337 611.393 468.543 618.896 474.097C621.268 475.852 626.358 480.25 629.248 489.278C629.756 490.676 630.251 492.122 630.742 493.609C630.814 493.837 630.886 494.055 630.958 494.283C631.502 496.091 631.813 497.895 631.952 499.646V564.73C631.952 564.73 631.952 564.73 631.952 564.735C630.157 567.673 628.361 570.615 626.565 573.553C624.981 576.152 626.862 579.469 629.923 579.469H675.821C678.886 579.469 680.776 576.143 679.188 573.54C678.576 572.539 679.687 571.37 680.727 571.932C687.987 575.848 700.715 580.688 717.916 579.469C734.7 578.277 748.499 571.83 758.536 565.262C762.141 562.9 764.927 566.048 768.298 568.726C772.335 571.937 783.105 581.041 795.671 579.902H795.748C802.125 579.661 807.175 574.464 807.175 568.128V496.033C807.175 486.796 803.768 477.897 797.625 471.151L797.62 471.146ZM765.624 540.12C765.624 548 761.475 555.318 754.661 559.372C749.269 562.578 742.747 564.869 735.469 564.279C733.052 564.083 718.907 562.944 714.316 553.117C712.993 550.282 712.817 547.487 712.939 545.411C712.952 545.138 712.966 544.871 712.966 544.598V544.228C712.966 540.656 714.194 537.195 716.449 534.409C717.736 532.82 719.267 531.136 721.067 529.449C724.519 526.221 738.804 513.777 758.873 515.608H758.945C762.73 515.965 765.624 519.112 765.624 522.885V540.12ZM765.624 501.565C765.624 505.745 762.132 509.075 757.919 508.955C739.218 508.424 716.382 511.268 694.063 523.202C687.762 526.573 682.181 530.306 677.261 534.141L677.189 534.199C675.821 535.271 673.809 534.302 673.809 532.574V509.308C673.809 504.334 677.986 500.324 682.991 500.565C692.429 501.025 698.536 498.681 702.614 495.971C710.972 490.412 710.778 483.317 722.417 475.879C730.591 470.655 737.949 469.467 741.32 469.181C746.96 468.699 754.026 469.668 761.083 473.504C763.892 475.026 765.624 477.968 765.624 481.143V501.574V501.565Z" fill="black"/>
</svg>
